<svg width="251" height="36" viewBox="0 0 251 36" fill="none" xmlns="http://www.w3.org/2000/svg">
<path d="M14.8828 14.3125H12.5195C11.5169 14.3125 10.7943 14.0586 10.3516 13.5508C9.90885 13.0299 9.6875 12.3464 9.6875 11.5C9.6875 9.625 11.0872 8.6875 13.8867 8.6875C16.5169 8.6875 18.4961 9.07812 19.8242 9.85938L18.6914 10.7188C17.7799 10.3021 16.1784 10.0938 13.8867 10.0938C12.7669 10.0938 12.0117 10.2174 11.6211 10.4648C11.2435 10.7122 11.0547 11.0573 11.0547 11.5C11.0547 11.9427 11.1589 12.2878 11.3672 12.5352C11.5755 12.7826 11.9596 12.9062 12.5195 12.9062H14.9414C16.6992 12.9062 18.2812 13.2057 19.6875 13.8047C21.1068 14.4036 22.2721 15.224 23.1836 16.2656C24.0951 17.2943 24.7917 18.4857 25.2734 19.8398C25.7552 21.181 25.9961 22.6198 25.9961 24.1562C25.9961 25.4062 25.8203 26.5911 25.4688 27.7109C25.1172 28.8307 24.5833 29.8594 23.8672 30.7969C23.1641 31.7344 22.3112 32.5482 21.3086 33.2383C20.319 33.9154 19.1341 34.4427 17.7539 34.8203C16.3867 35.2109 14.9023 35.4062 13.3008 35.4062C10.7878 35.4062 8.43099 35.0221 6.23047 34.2539C4.04297 33.4987 2.22005 32.4375 0.761719 31.0703L1.89453 30.2305C3.22266 31.4284 4.88281 32.3594 6.875 33.0234C8.88021 33.6745 11.0221 34 13.3008 34C15.0846 34 16.6927 33.7461 18.125 33.2383C19.5703 32.7174 20.7552 32.0078 21.6797 31.1094C22.6172 30.2109 23.3333 29.1693 23.8281 27.9844C24.3359 26.7995 24.5898 25.5234 24.5898 24.1562C24.5898 22.3464 24.2253 20.7122 23.4961 19.2539C22.7669 17.7826 21.6536 16.5911 20.1562 15.6797C18.6719 14.7682 16.9141 14.3125 14.8828 14.3125ZM12.5195 15.7188H14.7461C17.3893 15.7188 19.4531 16.526 20.9375 18.1406C22.4349 19.7552 23.1836 21.7604 23.1836 24.1562C23.1836 26.5911 22.3177 28.6094 20.5859 30.2109C18.8542 31.7995 16.4258 32.5938 13.3008 32.5938C11.2174 32.5938 9.27083 32.3073 7.46094 31.7344C5.65104 31.1615 4.14714 30.3542 2.94922 29.3125L4.04297 28.4336C5.11068 29.306 6.45182 29.9831 8.06641 30.4648C9.69401 30.9466 11.4388 31.1875 13.3008 31.1875C16.0482 31.1875 18.1445 30.5299 19.5898 29.2148C21.0482 27.8997 21.7773 26.2135 21.7773 24.1562C21.7773 22.125 21.1654 20.4453 19.9414 19.1172C18.7305 17.7891 16.9922 17.125 14.7266 17.125H12.5195C10.6185 17.125 9.19271 16.6042 8.24219 15.5625C7.29167 14.5208 6.81641 13.1667 6.81641 11.5C6.81641 9.83333 7.40234 8.47917 8.57422 7.4375C9.75911 6.39583 11.5299 5.875 13.8867 5.875C15.5404 5.875 17.0768 6.07031 18.4961 6.46094C19.9154 6.83854 21.0872 7.38542 22.0117 8.10156L20.8984 8.96094C19.2708 7.84115 16.9336 7.28125 13.8867 7.28125C11.9206 7.28125 10.4818 7.67188 9.57031 8.45312C8.67188 9.22135 8.22266 10.237 8.22266 11.5C8.22266 12.776 8.55469 13.7982 9.21875 14.5664C9.89583 15.3346 10.9961 15.7188 12.5195 15.7188ZM12.5195 18.5312H14.668C16.569 18.5312 17.9948 19.0586 18.9453 20.1133C19.8958 21.168 20.3711 22.5156 20.3711 24.1562C20.3711 25.8229 19.7786 27.1771 18.5938 28.2188C17.4219 29.2604 15.6576 29.7812 13.3008 29.7812C11.6471 29.7812 10.1042 29.5924 8.67188 29.2148C7.2526 28.8242 6.08073 28.2708 5.15625 27.5547L6.26953 26.6953C7.89714 27.8151 10.2409 28.375 13.3008 28.375C15.2669 28.375 16.6992 27.9909 17.5977 27.2227C18.5091 26.4414 18.9648 25.4193 18.9648 24.1562C18.9648 22.8932 18.6263 21.8776 17.9492 21.1094C17.2721 20.3281 16.1719 19.9375 14.6484 19.9375H12.5195C9.85026 19.9375 7.76042 19.1432 6.25 17.5547C4.7526 15.9531 4.00391 13.9349 4.00391 11.5C4.00391 9.0651 4.86979 7.05339 6.60156 5.46484C8.33333 3.86328 10.7617 3.0625 13.8867 3.0625C15.9701 3.0625 17.9102 3.34896 19.707 3.92188C21.5169 4.49479 23.0208 5.30208 24.2188 6.34375L23.125 7.22266C22.0573 6.35026 20.7161 5.67318 19.1016 5.19141C17.487 4.70964 15.7487 4.46875 13.8867 4.46875C11.1393 4.46875 9.03646 5.1263 7.57812 6.44141C6.13281 7.75651 5.41016 9.44271 5.41016 11.5C5.41016 13.5443 6.02214 15.2305 7.24609 16.5586C8.47005 17.8737 10.2279 18.5312 12.5195 18.5312ZM12.5195 21.3438H14.668C15.6706 21.3438 16.3932 21.6042 16.8359 22.125C17.2786 22.6458 17.5 23.3229 17.5 24.1562C17.5 26.0312 16.1003 26.9688 13.3008 26.9688C10.6576 26.9688 8.67188 26.5781 7.34375 25.7969L8.47656 24.9375C9.38802 25.3542 10.9961 25.5625 13.3008 25.5625C14.4206 25.5625 15.1693 25.4388 15.5469 25.1914C15.9375 24.944 16.1328 24.599 16.1328 24.1562C16.1328 23.7266 16.0221 23.388 15.8008 23.1406C15.5924 22.8802 15.2018 22.75 14.6289 22.75H12.5195C10.7227 22.75 9.09505 22.457 7.63672 21.8711C6.19141 21.2852 5 20.4779 4.0625 19.4492C3.13802 18.4206 2.42839 17.2292 1.93359 15.875C1.4388 14.5208 1.19141 13.0625 1.19141 11.5C1.19141 10.25 1.36719 9.0651 1.71875 7.94531C2.07031 6.82552 2.59766 5.79688 3.30078 4.85938C4.01693 3.92188 4.86979 3.11458 5.85938 2.4375C6.86198 1.7474 8.04688 1.21354 9.41406 0.835938C10.7943 0.445312 12.2852 0.25 13.8867 0.25C16.3997 0.25 18.75 0.634115 20.9375 1.40234C23.125 2.15755 24.9479 3.21875 26.4062 4.58594L25.2734 5.42578C23.9453 4.22786 22.2852 3.30339 20.293 2.65234C18.3008 1.98828 16.1654 1.65625 13.8867 1.65625C12.1029 1.65625 10.4883 1.91667 9.04297 2.4375C7.61068 2.94531 6.42578 3.64844 5.48828 4.54688C4.5638 5.44531 3.84766 6.48698 3.33984 7.67188C2.84505 8.85677 2.59766 10.1328 2.59766 11.5C2.59766 13.3359 2.96875 14.9896 3.71094 16.4609C4.45312 17.9323 5.58594 19.1172 7.10938 20.0156C8.63281 20.901 10.4362 21.3438 12.5195 21.3438Z" fill="#D92B2B" fill-opacity="0.95"/>
<path d="M60.0586 1.65625H61.4648V34H60.0586V1.65625ZM29.1211 1.65625H30.5273V34H29.1211V1.65625ZM57.2461 1.65625H58.6523V34H57.2461V1.65625ZM54.4336 1.65625H55.8398V34H54.4336V1.65625ZM51.6211 1.65625H53.0273V34H51.6211V21.3242H38.9648V34H37.5586V1.65625H38.9648V14.293H51.6211V1.65625ZM34.7461 1.65625H36.1523V34H34.7461V1.65625ZM31.9336 1.65625H33.3398V34H31.9336V1.65625ZM51.6211 19.918V18.5117H38.9648V19.918H51.6211ZM51.6211 17.1055V15.6992H38.9648V17.1055H51.6211ZM76.5625 12.3594C75.0521 13.8698 74.2969 15.6927 74.2969 17.8281C74.2969 19.9635 75.0521 21.7865 76.5625 23.2969C78.0729 24.8073 79.8958 25.5625 82.0312 25.5625C84.1667 25.5625 85.9896 24.8073 87.5 23.2969C89.0104 21.7865 89.7656 19.9635 89.7656 17.8281C89.7656 15.6927 89.0104 13.8698 87.5 12.3594C85.9896 10.849 84.1667 10.0938 82.0312 10.0938C79.8958 10.0938 78.0729 10.849 76.5625 12.3594ZM73.6133 21.3828C73.1315 20.25 72.8906 19.0651 72.8906 17.8281C72.8906 16.5911 73.1315 15.4128 73.6133 14.293C74.0951 13.1602 74.7461 12.1836 75.5664 11.3633C76.3867 10.543 77.3568 9.89193 78.4766 9.41016C79.6094 8.92839 80.7943 8.6875 82.0312 8.6875C83.2682 8.6875 84.4466 8.92839 85.5664 9.41016C86.6992 9.89193 87.6758 10.543 88.4961 11.3633C89.3164 12.1836 89.9674 13.1602 90.4492 14.293C90.931 15.4128 91.1719 16.5911 91.1719 17.8281C91.1719 19.0651 90.931 20.25 90.4492 21.3828C89.9674 22.5026 89.3164 23.4727 88.4961 24.293C87.6758 25.1133 86.6992 25.7643 85.5664 26.2461C84.4466 26.7279 83.2682 26.9688 82.0312 26.9688C80.7943 26.9688 79.6094 26.7279 78.4766 26.2461C77.3568 25.7643 76.3867 25.1133 75.5664 24.293C74.7461 23.4727 74.0951 22.5026 73.6133 21.3828ZM72.8906 12.5352C71.9531 14.1497 71.4844 15.9141 71.4844 17.8281C71.4844 19.7422 71.9531 21.5065 72.8906 23.1211C73.8411 24.7357 75.1237 26.0182 76.7383 26.9688C78.3529 27.9062 80.1172 28.375 82.0312 28.375C83.9453 28.375 85.7096 27.9062 87.3242 26.9688C88.9388 26.0182 90.2148 24.7357 91.1523 23.1211C92.1029 21.5065 92.5781 19.7422 92.5781 17.8281C92.5781 15.9141 92.1029 14.1497 91.1523 12.5352C90.2148 10.9206 88.9388 9.64453 87.3242 8.70703C85.7096 7.75651 83.9453 7.28125 82.0312 7.28125C80.1172 7.28125 78.3529 7.75651 76.7383 8.70703C75.1237 9.64453 73.8411 10.9206 72.8906 12.5352ZM71.6797 23.8242C70.612 21.9883 70.0781 19.9896 70.0781 17.8281C70.0781 15.6667 70.612 13.668 71.6797 11.832C72.7474 9.99609 74.1992 8.54427 76.0352 7.47656C77.8711 6.40885 79.8698 5.875 82.0312 5.875C84.1927 5.875 86.1914 6.40885 88.0273 7.47656C89.8633 8.54427 91.3151 9.99609 92.3828 11.832C93.4505 13.668 93.9844 15.6667 93.9844 17.8281C93.9844 19.9896 93.4505 21.9883 92.3828 23.8242C91.3151 25.6602 89.8633 27.112 88.0273 28.1797C86.1914 29.2474 84.1927 29.7812 82.0312 29.7812C79.8698 29.7812 77.8711 29.2474 76.0352 28.1797C74.1992 27.112 72.7474 25.6602 71.6797 23.8242ZM69.7266 12.6328C69.0234 14.2865 68.6719 16.0182 68.6719 17.8281C68.6719 19.638 69.0234 21.3698 69.7266 23.0234C70.4297 24.6771 71.3737 26.1029 72.5586 27.3008C73.7565 28.4857 75.1823 29.4297 76.8359 30.1328C78.4896 30.8359 80.2214 31.1875 82.0312 31.1875C83.8411 31.1875 85.5729 30.8359 87.2266 30.1328C88.8802 29.4297 90.2995 28.4857 91.4844 27.3008C92.6823 26.1029 93.6328 24.6771 94.3359 23.0234C95.0391 21.3698 95.3906 19.638 95.3906 17.8281C95.3906 16.0182 95.0391 14.2865 94.3359 12.6328C93.6328 10.9792 92.6823 9.5599 91.4844 8.375C90.2995 7.17708 88.8802 6.22656 87.2266 5.52344C85.5729 4.82031 83.8411 4.46875 82.0312 4.46875C80.2214 4.46875 78.4896 4.82031 76.8359 5.52344C75.1823 6.22656 73.7565 7.17708 72.5586 8.375C71.3737 9.5599 70.4297 10.9792 69.7266 12.6328ZM69.2383 25.2305C67.9232 22.9648 67.2656 20.4974 67.2656 17.8281C67.2656 15.1589 67.9232 12.6914 69.2383 10.4258C70.5664 8.16016 72.3633 6.36979 74.6289 5.05469C76.8945 3.72656 79.362 3.0625 82.0312 3.0625C84.7005 3.0625 87.168 3.72656 89.4336 5.05469C91.6992 6.36979 93.4896 8.16016 94.8047 10.4258C96.1328 12.6914 96.7969 15.1589 96.7969 17.8281C96.7969 20.4974 96.1328 22.9648 94.8047 25.2305C93.4896 27.4961 91.6992 29.293 89.4336 30.6211C87.168 31.9362 84.7005 32.5938 82.0312 32.5938C79.362 32.5938 76.8945 31.9362 74.6289 30.6211C72.3633 29.293 70.5664 27.4961 69.2383 25.2305ZM67.1289 11.5586C66.2826 13.5508 65.8594 15.6406 65.8594 17.8281C65.8594 20.0156 66.2826 22.112 67.1289 24.1172C67.9883 26.1094 69.1406 27.8281 70.5859 29.2734C72.0312 30.7188 73.75 31.8711 75.7422 32.7305C77.7474 33.5768 79.8438 34 82.0312 34C84.2188 34 86.3086 33.5768 88.3008 32.7305C90.306 31.8711 92.0312 30.7188 93.4766 29.2734C94.9219 27.8281 96.0677 26.1094 96.9141 24.1172C97.7734 22.112 98.2031 20.0156 98.2031 17.8281C98.2031 15.6406 97.7734 13.5508 96.9141 11.5586C96.0677 9.55339 94.9219 7.82812 93.4766 6.38281C92.0312 4.9375 90.306 3.79167 88.3008 2.94531C86.3086 2.08594 84.2188 1.65625 82.0312 1.65625C79.8438 1.65625 77.7474 2.08594 75.7422 2.94531C73.75 3.79167 72.0312 4.9375 70.5859 6.38281C69.1406 7.82812 67.9883 9.55339 67.1289 11.5586ZM65.8398 24.6641C64.9154 22.4896 64.4531 20.2109 64.4531 17.8281C64.4531 15.4453 64.9154 13.1732 65.8398 11.0117C66.7773 8.83724 68.0273 6.96875 69.5898 5.40625C71.1654 3.83073 73.0339 2.58073 75.1953 1.65625C77.3698 0.71875 79.6484 0.25 82.0312 0.25C84.4141 0.25 86.6862 0.71875 88.8477 1.65625C91.0221 2.58073 92.8906 3.83073 94.4531 5.40625C96.0286 6.96875 97.2786 8.83724 98.2031 11.0117C99.1406 13.1732 99.6094 15.4453 99.6094 17.8281C99.6094 20.2109 99.1406 22.4896 98.2031 24.6641C97.2786 26.8255 96.0286 28.694 94.4531 30.2695C92.8906 31.832 91.0221 33.0755 88.8477 34C86.6862 34.9375 84.4141 35.4062 82.0312 35.4062C79.6484 35.4062 77.3698 34.9375 75.1953 34C73.0339 33.0755 71.1654 31.832 69.5898 30.2695C68.0273 28.694 66.7773 26.8255 65.8398 24.6641ZM109.746 24.0586L109.082 26.832L102.402 1.65625H103.848L109.746 24.0586ZM111.211 18.6484L110.488 21.3438L105.312 1.65625H106.738L111.211 18.6484ZM112.676 13.043L111.934 15.7773L108.203 1.65625H109.668L112.676 13.043ZM118.242 34H116.777L125.332 1.69531L125.312 1.65625H126.797V1.69531L130.605 14.8203L134.102 1.65625H135.566L126.992 34H125.527L121.699 20.8945L118.242 34ZM115.312 34H113.867L122.422 1.65625H123.867L115.312 34ZM112.402 34H110.957L119.531 1.65625H120.957L112.402 34ZM135.742 34H134.277L142.832 1.65625H144.297L135.742 34ZM132.812 34H131.367L139.922 1.65625H141.367L132.812 34ZM129.902 34H128.457L137.031 1.65625H138.457L129.902 34ZM108.77 31.2266L116.602 1.65625H118.066L109.492 34H108.027L99.4727 1.65625H100.938L108.77 31.2266ZM122.441 18.1406L126.23 31.3438L126.973 28.5508L123.164 15.3867L122.441 18.1406ZM123.887 12.6328L127.695 25.7969L128.438 23.043L124.629 9.85938L123.887 12.6328ZM125.332 7.16406L129.16 20.3281L129.883 17.5547L126.094 4.35156L125.332 7.16406ZM150.684 3.0625V1.65625H171.777V3.0625H150.684ZM150.684 5.875V4.46875H171.777V5.875H150.684ZM150.684 8.6875V7.28125H171.777V8.6875H166.152V34H164.746V8.6875H163.34V34H161.934V8.6875H160.527V34H159.121V8.6875H157.715V34H156.309V8.6875H150.684ZM183.418 1.65625H184.824V34H183.418V1.65625ZM180.605 1.65625H182.012V34H180.605V1.65625ZM177.793 1.65625H179.199V34H177.793V1.65625ZM174.98 1.65625H176.387V34H174.98V1.65625ZM211.816 22.2031L213.223 19.5469V34H211.816V22.2031ZM214.629 16.8125L216.035 14.1562V34H214.629V16.8125ZM217.441 11.5L218.848 8.82422V34H217.441V11.5ZM208.008 21.5391L207.207 20.0742L216.895 1.65625H218.477L208.008 21.5391ZM206.387 18.4727L205.566 16.9883L213.691 1.65625H215.293L206.387 18.4727ZM196.973 19.7031L198.379 22.3594V34H196.973V19.7031ZM194.16 14.3516L195.566 17.0078V34H194.16V14.3516ZM191.348 9L192.754 11.6758V34H191.348V9ZM202.715 25.5625H201.133L189.941 4.33203V34H188.535V1.65625H190.117L202.715 25.5625ZM205.898 25.5625H204.297L191.719 1.65625H193.32L205.898 25.5625ZM220.254 4.33203L209.062 25.5625H207.461L194.902 1.65625H196.484L208.281 24.0781L220.059 1.65625H221.66V34H220.254V4.33203ZM232.402 34H230.996V1.65625H232.402V34ZM229.59 34H228.184V1.65625H229.59V34ZM226.777 34H225.371V1.65625H226.777V34ZM235.215 26.9688H250.176V28.375H235.215V29.7812H250.176V31.1875H235.215V32.5938H250.176V34H233.809V1.65625H250.176V3.0625H235.215V4.46875H250.176V5.875H235.215V7.28125H250.176V8.6875H235.215V14.3125H242.891V15.7188H235.215V17.125H242.891V18.5312H235.215V19.9375H242.891V21.3438H235.215V26.9688Z" fill="#FAFAFA" fill-opacity="0.95"/>
</svg>
