<svg width="54" height="36" viewBox="0 0 54 36" fill="none" xmlns="http://www.w3.org/2000/svg">
<path d="M14.8828 14.3125H12.5195C11.5169 14.3125 10.7943 14.0586 10.3516 13.5508C9.90885 13.0299 9.6875 12.3464 9.6875 11.5C9.6875 9.625 11.0872 8.6875 13.8867 8.6875C16.5169 8.6875 18.4961 9.07812 19.8242 9.85938L18.6914 10.7188C17.7799 10.3021 16.1784 10.0938 13.8867 10.0938C12.7669 10.0938 12.0117 10.2174 11.6211 10.4648C11.2435 10.7122 11.0547 11.0573 11.0547 11.5C11.0547 11.9427 11.1589 12.2878 11.3672 12.5352C11.5755 12.7826 11.9596 12.9062 12.5195 12.9062H14.9414C16.6992 12.9062 18.2812 13.2057 19.6875 13.8047C21.1068 14.4036 22.2721 15.224 23.1836 16.2656C24.0951 17.2943 24.7917 18.4857 25.2734 19.8398C25.7552 21.181 25.9961 22.6198 25.9961 24.1562C25.9961 25.4062 25.8203 26.5911 25.4688 27.7109C25.1172 28.8307 24.5833 29.8594 23.8672 30.7969C23.1641 31.7344 22.3112 32.5482 21.3086 33.2383C20.319 33.9154 19.1341 34.4427 17.7539 34.8203C16.3867 35.2109 14.9023 35.4062 13.3008 35.4062C10.7878 35.4062 8.43099 35.0221 6.23047 34.2539C4.04297 33.4987 2.22005 32.4375 0.761719 31.0703L1.89453 30.2305C3.22266 31.4284 4.88281 32.3594 6.875 33.0234C8.88021 33.6745 11.0221 34 13.3008 34C15.0846 34 16.6927 33.7461 18.125 33.2383C19.5703 32.7174 20.7552 32.0078 21.6797 31.1094C22.6172 30.2109 23.3333 29.1693 23.8281 27.9844C24.3359 26.7995 24.5898 25.5234 24.5898 24.1562C24.5898 22.3464 24.2253 20.7122 23.4961 19.2539C22.7669 17.7826 21.6536 16.5911 20.1562 15.6797C18.6719 14.7682 16.9141 14.3125 14.8828 14.3125ZM12.5195 15.7188H14.7461C17.3893 15.7188 19.4531 16.526 20.9375 18.1406C22.4349 19.7552 23.1836 21.7604 23.1836 24.1562C23.1836 26.5911 22.3177 28.6094 20.5859 30.2109C18.8542 31.7995 16.4258 32.5938 13.3008 32.5938C11.2174 32.5938 9.27083 32.3073 7.46094 31.7344C5.65104 31.1615 4.14714 30.3542 2.94922 29.3125L4.04297 28.4336C5.11068 29.306 6.45182 29.9831 8.06641 30.4648C9.69401 30.9466 11.4388 31.1875 13.3008 31.1875C16.0482 31.1875 18.1445 30.5299 19.5898 29.2148C21.0482 27.8997 21.7773 26.2135 21.7773 24.1562C21.7773 22.125 21.1654 20.4453 19.9414 19.1172C18.7305 17.7891 16.9922 17.125 14.7266 17.125H12.5195C10.6185 17.125 9.19271 16.6042 8.24219 15.5625C7.29167 14.5208 6.81641 13.1667 6.81641 11.5C6.81641 9.83333 7.40234 8.47917 8.57422 7.4375C9.75911 6.39583 11.5299 5.875 13.8867 5.875C15.5404 5.875 17.0768 6.07031 18.4961 6.46094C19.9154 6.83854 21.0872 7.38542 22.0117 8.10156L20.8984 8.96094C19.2708 7.84115 16.9336 7.28125 13.8867 7.28125C11.9206 7.28125 10.4818 7.67188 9.57031 8.45312C8.67188 9.22135 8.22266 10.237 8.22266 11.5C8.22266 12.776 8.55469 13.7982 9.21875 14.5664C9.89583 15.3346 10.9961 15.7188 12.5195 15.7188ZM12.5195 18.5312H14.668C16.569 18.5312 17.9948 19.0586 18.9453 20.1133C19.8958 21.168 20.3711 22.5156 20.3711 24.1562C20.3711 25.8229 19.7786 27.1771 18.5938 28.2188C17.4219 29.2604 15.6576 29.7812 13.3008 29.7812C11.6471 29.7812 10.1042 29.5924 8.67188 29.2148C7.2526 28.8242 6.08073 28.2708 5.15625 27.5547L6.26953 26.6953C7.89714 27.8151 10.2409 28.375 13.3008 28.375C15.2669 28.375 16.6992 27.9909 17.5977 27.2227C18.5091 26.4414 18.9648 25.4193 18.9648 24.1562C18.9648 22.8932 18.6263 21.8776 17.9492 21.1094C17.2721 20.3281 16.1719 19.9375 14.6484 19.9375H12.5195C9.85026 19.9375 7.76042 19.1432 6.25 17.5547C4.7526 15.9531 4.00391 13.9349 4.00391 11.5C4.00391 9.0651 4.86979 7.05339 6.60156 5.46484C8.33333 3.86328 10.7617 3.0625 13.8867 3.0625C15.9701 3.0625 17.9102 3.34896 19.707 3.92188C21.5169 4.49479 23.0208 5.30208 24.2188 6.34375L23.125 7.22266C22.0573 6.35026 20.7161 5.67318 19.1016 5.19141C17.487 4.70964 15.7487 4.46875 13.8867 4.46875C11.1393 4.46875 9.03646 5.1263 7.57812 6.44141C6.13281 7.75651 5.41016 9.44271 5.41016 11.5C5.41016 13.5443 6.02214 15.2305 7.24609 16.5586C8.47005 17.8737 10.2279 18.5312 12.5195 18.5312ZM12.5195 21.3438H14.668C15.6706 21.3438 16.3932 21.6042 16.8359 22.125C17.2786 22.6458 17.5 23.3229 17.5 24.1562C17.5 26.0312 16.1003 26.9688 13.3008 26.9688C10.6576 26.9688 8.67188 26.5781 7.34375 25.7969L8.47656 24.9375C9.38802 25.3542 10.9961 25.5625 13.3008 25.5625C14.4206 25.5625 15.1693 25.4388 15.5469 25.1914C15.9375 24.944 16.1328 24.599 16.1328 24.1562C16.1328 23.7266 16.0221 23.388 15.8008 23.1406C15.5924 22.8802 15.2018 22.75 14.6289 22.75H12.5195C10.7227 22.75 9.09505 22.457 7.63672 21.8711C6.19141 21.2852 5 20.4779 4.0625 19.4492C3.13802 18.4206 2.42839 17.2292 1.93359 15.875C1.4388 14.5208 1.19141 13.0625 1.19141 11.5C1.19141 10.25 1.36719 9.0651 1.71875 7.94531C2.07031 6.82552 2.59766 5.79688 3.30078 4.85938C4.01693 3.92188 4.86979 3.11458 5.85938 2.4375C6.86198 1.7474 8.04688 1.21354 9.41406 0.835938C10.7943 0.445312 12.2852 0.25 13.8867 0.25C16.3997 0.25 18.75 0.634115 20.9375 1.40234C23.125 2.15755 24.9479 3.21875 26.4062 4.58594L25.2734 5.42578C23.9453 4.22786 22.2852 3.30339 20.293 2.65234C18.3008 1.98828 16.1654 1.65625 13.8867 1.65625C12.1029 1.65625 10.4883 1.91667 9.04297 2.4375C7.61068 2.94531 6.42578 3.64844 5.48828 4.54688C4.5638 5.44531 3.84766 6.48698 3.33984 7.67188C2.84505 8.85677 2.59766 10.1328 2.59766 11.5C2.59766 13.3359 2.96875 14.9896 3.71094 16.4609C4.45312 17.9323 5.58594 19.1172 7.10938 20.0156C8.63281 20.901 10.4362 21.3438 12.5195 21.3438Z" fill="#D92B2B" fill-opacity="0.95"/>
<path d="M32.832 3.0625V1.65625H53.9258V3.0625H32.832ZM32.832 5.875V4.46875H53.9258V5.875H32.832ZM32.832 8.6875V7.28125H53.9258V8.6875H48.3008V34H46.8945V8.6875H45.4883V34H44.082V8.6875H42.6758V34H41.2695V8.6875H39.8633V34H38.457V8.6875H32.832Z" fill="#E7E2E2" fill-opacity="0.95"/>
</svg>
